<svg id="eQtJF3b2ahf1" xmlns="http://www.w3.org/2000/svg" xmlns:xlink="http://www.w3.org/1999/xlink" viewBox="0 -159 599 599" shape-rendering="geometricPrecision" text-rendering="geometricPrecision"><path d="M1.73157,2.41675C1.56006,2.58008,1.5,2.72986,1.5,2.875l.00006,6.43738.00012,3.19532v.9972l.00006.274v.0716.0183.0046.0011c0,.2766-.22387.5005-.5.5005s-.499996-.2239-.499996-.5001v-.0015-.0046-.0183-.0716l-.000061-.274v-.9971L0.500061,9.31238L0.5,2.87488c.000061-.47974.221252-.87683.54193-1.18225.31311-.29822.73309-.52332,1.19074-.692752C3.1496,0.660278,5.50012,0.5,5.50012,0.5s2.35047.160278,3.2674.499878c.45758.169432.87762.394532,1.19067.692622.32071.30542.54191.70264.54191,1.18238v3.16858L10.5,12.446c.0213.0197.0671.0546.1583.1016.2127.1094.5507.2156,1.0022.3059.894.1787,2.1085.2715,3.3394.2715s2.4455-.0928,3.3395-.2715c.4516-.0903.7895-.1965,1.0022-.3059.0147-.0076.0281-.0148.0405-.0216s.0236-.0134.0339-.0197c.0068-.0041.0132-.008.0192-.0119.0082-.0053.0155-.0103.0223-.0149.0197-.0138.0333-.025.0425-.0335v-.002-.0099-.0101-.0104-.0105-.0106-.0109-.011-.0112-.0114-.0116-.0117-.0118-.012-.0122-.0125-.0125-.0127-.0128-.0131-.0132-.0134-.0136-.0136-.0138-.0141-.0141-.0143-.0145-.0147-.0148-.015-.015-.0152-.0155-.0155-.0158-.0159-.016-.0161-.0163-.0165-.0166-.0167-.017-.017-.0172-.0173-.0175-.0175-.0179-.0178-.0181-.018-.0183-.0185-.0186-.0187-.0188-.0191-.019-.0193-.0193-.0195-.0197-.0197-.0198-.02-.0202-.0202-.0204-.0205-.0207-.0207-.0209-.021-.0211-.0212-.0214-.0215-.0216-.0217-.0218-.0219-.022-.0222-.0222-.0225-.0225-.0225-.0227-.0229-.0229-.023-.0232-.0232-.0234-.0234-.0236-.0235-.0239-.0238-.024-.0241-.024-.0243-.0244-.0244-.0246-.0245-.0248-.0248-.0249-.025-.025-.0253-.0252-.0253-.0255-.0255-.0255-.0258-.0258-.0258-.0259-.0261-.0262-.0261-.02623-.02637-.02637-.02649-.02661-.02661-.02673-.02686-.02686-.02697-.02698-.0271-.0271-.02722-.02734-.02735-.02734-.02747-.02759-.02758-.02771-.02771-.02784-.02783-.02795-.02796-.02807-.02808-.0282-.0282-.02832-.02832-.02832-.02844-.02856-.02845-.02856-.02869-.02868-.02869-.02881-.02881-.02893-.02893-.02893-.02905-.02905-.02906-.02917-.02918-.02917-.0293-.02929-.0293-.02942-.02942-.02942-.02942-.02954-.02954-.02954-.02966-.02967-.02966-.02966-.02979-.02966-.02979-.02978-.02991-.02978-.02991-.02991-.02991-.0299-.03003-.02991-.03003-.03003-.03003-.03003-.03015-.03003-.03015-.03003-.03015-.03015-.03015-.03015-.03015-.03016-.03015-.03027-.03015-.03015-.03028-.03015-.03027-.03015-.03028-.03015-.03027-.03027-.03016-.03027-.03015-.03027-.03016-.03015-.03027-.03015-.03015-.03015-.03016-.03015-.03015-.03015-.03003-.03015-.03015-.03003-.03003-.03003-.03003-.03003-.02991-.03003-.0299-.02991-.02991-.0299-.02991-.02979-.02978-.02979-.02978-.02966-.02979-.02966-.02967-.02954-.02954-.02954-.02954-.02954-.02942-.02942-.0293-.02942-.02929-.0293-.02917-.02918-.02917-.02906-.02905-.02905-.02893-.02893-.02893-.02881-.02881-.02869-.02868-.02869-.02856-.02857-.02844-.02844-.02845-.02832-.02832-.0282-.02819-.02808-.02808-.02795-.02795-.02784-.02783-.02771-.02771-.02759-.02758-.02747-.02747-.02734-.02734-.02722-.0271-.0271-.02698-.02698-.02685-.02686-.02673-.02661-.02662-.02649-.02648-.02625-.02637-.02612-.02612-.026-.026-.02588-.02576-.02576-.02563-.02551-.0254-.02539-.02526-.02515-.02515-.02502-.0249-.02478-.02478-.02454-.02466-.02441-.0243-.02429-.02417-.02404-.02393-.02393-.0238-.02356-.02356-.02356-.02331-.0232-.02319-.02307-.02295-.02283-.0227-.02259-.02246-.02246-.02222-.02221-.0221-.02185-.02185-.02173-.0216-.02149-.02136-.02124-.02112-.02099-.02088-.02087-.02063-.02051-.02039-.02026-.02014-.02002-.0199-.01977-.01966-.01953-.01929-.01928-.01917-.01892-.01892-.01868-.01855-.01856-.01831-.01806-.01807-.01794-.0177-.0177-.01746-.01733-.01722-.01709-.01684-.01685-.0166-.01648-.01623-.01624-.01599-.01587-.01575-.01562-.01538-.01526-.01514-.01501-.01477-.01465-.01453-.0144-.01416-.01404-.01379-.0138-.01355-.0133-.01331-.01306-.01282-.01281-.01246-.01245-.0122-.01209-.01184-.01172-.0116-.01135-.01123-.01111-.01086-.01062-.0105-.01038-.01013-.01001-.00976-.00965-.00952-.00915-.00916-.00891-.00867-.00854-.0083-.00818-.00806-.00781-.00757-.00744-.00721-.00695-.00696-.00659-.00647-.00623-.0061-.00586-.00574-.00549-.00525-.00513-.00488-.00464-.00452-.00427-.00415-.00391-.00366-.00342-.00329-.00305-.00293-.00269-.00244-.0022-.00207-.00183-.00159-.00134-.00122-.00098-.00122c0-.00025,0-.00037.0338-.00037L19.5,1.5c0-.27612.2239-.5.5-.5s.5.22388.5.50012v.00159.00098.00122.00134.00159.00183.00207.0022.00244.00269.00293.00305.00329.00342.00366.00391.00415.00427.00452.00464.00488.00513.00525.00549.00574.00586.0061.00623.00647.00659.00696.00695.00721.00744.00757.00781.00806.00818.0083.00854.00867.00891.00916.00915.00952.00965.00976.01001.01013.01038.0105.01062.01086.01111.01123.01135.0116.01172.01184.01209.0122.01245.01246.01281.01282.01306.01331.0133.01355.0138.01379.01404.01416.0144.01453.01465.01477.01501.01514.01526.01538.01562.01575.01587.01599.01624.01623.01648.0166.01685.01684.01709.01722.01733.01746.0177.0177.01794.01807.01806.01831.01856.01855.01868.01892.01892.01917.01928.01929.01953.01966.01977.0199.02002.02014.02026.02039.02051.02063.02087.02088.02099.02112.02124.02136.02149.0216.02173.02185.02185.0221.02221.02222.02246.02246.02259.0227.02283.02295.02307.02319.0232.02331.02356.02356.02356.0238.02393.02393.02404.02417.02429.0243.02441.02466.02454.02478.02478.0249.02502.02515.02515.02526.02539.0254.02551.02563.02576.02576.02588.026.026.02612.02612.02637.02625.02648.02649.02662.02661.02673.02686.02685.02698.02698.0271.0271.02722.02734.02734.02747.02747.02758.02759.02771.02771.02783.02784.02795.02795.02808.02808.02819.0282.02832.02832.02845.02844.02844.02857.02856.02869.02868.02869.02881.02881.02893.02893.02893.02905.02905.02906.02917.02918.02917.0293.02929.02942.0293.02942.02942.02954.02954.02954.02954.02954.02967.02966.02979.02966.02978.02979.02978.02979.02991.0299.02991.02991.0299.03003.02991.03003.03003.03003.03003.03003.03015.03015.03003.03015.03015.03015.03016.03015.03015.03015.03027.03015.03016.03027.03015.03027.03016.03027.03027.03015.03028.03015.03027.03015.03028.03015.03015.03027.03015.03016.03015.03015.03015.03015.03015.03003.03015.03003.03015.03003.03003.03003.03003.02991.03003.0299.02991.02991.02991.02978.02991.02978.02979.02966.02979.02966.02966.02967.02966.02954.02954.02954.02942.02942.02942.02942.0293.02929.0293.02917.02918.02917.02906.02905.02905.02893.02893.02893.02881.02881.02869.02868.02869.02856.02845.02856.02844.02832.02832.02832.0282.0282.02808.02807.02796.02795.02783.02784.02771.02771.02758.02759.02747.02734.02735.02734.02722.0271.0271.02698.02697.02686.02686.02673.02661.02661.02649.02637.02637.02623.0261.0262.0261.0259.0258.0258.0258.0255.0255.0255.0253.0252.0253.025.025.0249.0248.0248.0245.0246.0244.0244.0243.024.0241.024.0238.0239.0235.0236.0234.0234.0232.0232.023.0229.0229.0227.0225.0225.0225.0222.0222.022.0219.0218.0217.0216.0215.0214.0212.0211.021.0209.0207.0207.0205.0204.0202.0202.02.0198.0197.0197.0195.0193.0193.019.0191.0188.0187.0186.0185.0183.018.0181.0178.0179.0175.0175.0173.0172.017.017.0167.0166.0165.0163.0161.016.0159.0158.0155.0155.0152.015.015.0148.0147.0145.0143.0141.0141.0138.0136.0136.0134.0132.0131.0128.0127.0125.0125.0122.012.0118.0117.0116.0114.0112.011.0109.0106.0105.0104.0101.0099.0096c.019.0187.0608.0526.1462.0989.1976.1069.5142.2121.9412.302.845.1778,1.9952.2705,3.1626.2705s2.3176-.0927,3.1626-.2705c.427-.0899.7436-.1951.9412-.302.0854-.0463.1272-.0802.1462-.0989v-6.0161-3.42969-1.09668-.30407-.07972-.0205-.00513-.00122c0-.00025,0-.00037.0167-.00037L29,1.5c0-.27612.2239-.5.5-.5s.5.22388.5.50012v.00159.00513.0205.07972.30407v1.09668v3.42969v6.0625c0,.4814-.3776.7736-.6702.9319-.3219.1743-.7475.3036-1.2111.4011-.9363.1972-2.1611.292-3.3687.292s-2.4324-.0948-3.3687-.292c-.4636-.0975-.8892-.2268-1.2111-.4011-.0294-.0159-.0596-.0331-.0902-.0518-.0289-.0176-.058-.0363-.0872-.0565-.0198.0132-.0397.0259-.0593.038-.0194.0118-.0387.0232-.0578.0339l-.0208.0116-.0204.0111c-.012.0065-.0238.0127-.0355.0187-.3342.1719-.7775.2999-1.2635.3972-.981.1962-2.2665.2909-3.5356.2909s-2.5545-.0947-3.5355-.2909c-.4859-.0973-.9293-.2253-1.2634-.3972-.29652-.1525-.70106-.4424-.701-.9369l.00006-6.45654v-3.16858c0-.14514-.06-.2948-.23151-.45813-.17913-.17066-.46228-.33618-.84838-.47913C7.64966,1.65222,6.58807,1.5,5.50012,1.5s-2.14953.15222-2.92016.43762c-.38611.14307-.66925.3086-.84839.47913ZM15,5c0,.55225-.4477,1-1,1s-1-.44775-1-1s.4477-1,1-1s1,.44775,1,1ZM7,6c.55231,0,1-.44775,1-1s-.44769-1-1-1-1,.44775-1,1s.44769,1,1,1Zm1,5c0,.5522-.44769,1-1,1s-1-.4478-1-1s.44769-1,1-1s1,.4478,1,1ZM7,9c.55231,0,1-.44775,1-1s-.44769-1-1-1-1,.44775-1,1s.44769,1,1,1ZM5,8c0,.55225-.44769,1-1,1s-1-.44775-1-1s.44769-1,1-1s1,.44775,1,1ZM17,9c.5523,0,1-.44775,1-1s-.4477-1-1-1-1,.44775-1,1s.4477,1,1,1Zm8-1c0,.55225-.4477,1-1,1s-1-.44775-1-1s.4477-1,1-1s1,.44775,1,1ZM24,6c.5523,0,1-.44775,1-1s-.4477-1-1-1-1,.44775-1,1s.4477,1,1,1ZM10.4835,12.428c.0001,0,.0011.0011.0025.0035l-.0017-.0021-.0008-.0014Z" transform="matrix(20.311333 0 0 20.311312-10.155666-10.155656)" clip-rule="evenodd" fill="#f5bdc4" fill-rule="evenodd"/></svg>
