<svg width="26" height="27" viewBox="0 0 26 27" fill="none" xmlns="http://www.w3.org/2000/svg">
<path id="date" d="M5.27709 23.9167C4.69662 23.9167 4.19951 23.7098 3.78579 23.2961C3.37207 22.8824 3.16556 22.3856 3.16626 21.8059V7.03002C3.16626 6.44954 3.37312 5.95244 3.78685 5.53872C4.20057 5.12499 4.69732 4.91848 5.27709 4.91919H6.33251V3.86377C6.33251 3.56474 6.43383 3.3139 6.63647 3.11126C6.83911 2.90862 7.0896 2.80765 7.38793 2.80835C7.68696 2.80835 7.9378 2.90967 8.14044 3.11231C8.34308 3.31495 8.44405 3.56544 8.44335 3.86377V4.91919H16.8867V3.86377C16.8867 3.56474 16.988 3.3139 17.1906 3.11126C17.3933 2.90862 17.6438 2.80765 17.9421 2.80835C18.2411 2.80835 18.492 2.90967 18.6946 3.11231C18.8972 3.31495 18.9982 3.56544 18.9975 3.86377V4.91919H20.0529C20.6334 4.91919 21.1305 5.12605 21.5442 5.53977C21.958 5.9535 22.1645 6.45024 22.1638 7.03002V21.8059C22.1638 22.3863 21.9569 22.8834 21.5432 23.2972C21.1295 23.7109 20.6327 23.9174 20.0529 23.9167H5.27709ZM5.27709 21.8059H20.0529V11.2517H5.27709V21.8059ZM5.27709 9.14085H20.0529V7.03002H5.27709V9.14085ZM12.665 15.4734C12.366 15.4734 12.1151 15.372 11.9125 15.1694C11.7099 14.9668 11.6089 14.7163 11.6096 14.4179C11.6096 14.1189 11.7109 13.8681 11.9136 13.6654C12.1162 13.4628 12.3667 13.3618 12.665 13.3625C12.964 13.3625 13.2149 13.4638 13.4175 13.6665C13.6202 13.8691 13.7211 14.1196 13.7204 14.4179C13.7204 14.717 13.6191 14.9678 13.4165 15.1705C13.2138 15.3731 12.9633 15.4741 12.665 15.4734ZM8.44335 15.4734C8.14431 15.4734 7.89347 15.372 7.69083 15.1694C7.48819 14.9668 7.38723 14.7163 7.38793 14.4179C7.38793 14.1189 7.48925 13.8681 7.69189 13.6654C7.89453 13.4628 8.14501 13.3618 8.44335 13.3625C8.74238 13.3625 8.99322 13.4638 9.19586 13.6665C9.3985 13.8691 9.49947 14.1196 9.49876 14.4179C9.49876 14.717 9.39744 14.9678 9.1948 15.1705C8.99216 15.3731 8.74168 15.4741 8.44335 15.4734ZM16.8867 15.4734C16.5876 15.4734 16.3368 15.372 16.1342 15.1694C15.9315 14.9668 15.8306 14.7163 15.8313 14.4179C15.8313 14.1189 15.9326 13.8681 16.1352 13.6654C16.3379 13.4628 16.5883 13.3618 16.8867 13.3625C17.1857 13.3625 17.4366 13.4638 17.6392 13.6665C17.8418 13.8691 17.9428 14.1196 17.9421 14.4179C17.9421 14.717 17.8408 14.9678 17.6381 15.1705C17.4355 15.3731 17.185 15.4741 16.8867 15.4734ZM12.665 19.695C12.366 19.695 12.1151 19.5937 11.9125 19.3911C11.7099 19.1884 11.6089 18.9379 11.6096 18.6396C11.6096 18.3406 11.7109 18.0897 11.9136 17.8871C12.1162 17.6845 12.3667 17.5835 12.665 17.5842C12.964 17.5842 13.2149 17.6855 13.4175 17.8881C13.6202 18.0908 13.7211 18.3413 13.7204 18.6396C13.7204 18.9386 13.6191 19.1895 13.4165 19.3921C13.2138 19.5948 12.9633 19.6957 12.665 19.695ZM8.44335 19.695C8.14431 19.695 7.89347 19.5937 7.69083 19.3911C7.48819 19.1884 7.38723 18.9379 7.38793 18.6396C7.38793 18.3406 7.48925 18.0897 7.69189 17.8871C7.89453 17.6845 8.14501 17.5835 8.44335 17.5842C8.74238 17.5842 8.99322 17.6855 9.19586 17.8881C9.3985 18.0908 9.49947 18.3413 9.49876 18.6396C9.49876 18.9386 9.39744 19.1895 9.1948 19.3921C8.99216 19.5948 8.74168 19.6957 8.44335 19.695ZM16.8867 19.695C16.5876 19.695 16.3368 19.5937 16.1342 19.3911C15.9315 19.1884 15.8306 18.9379 15.8313 18.6396C15.8313 18.3406 15.9326 18.0897 16.1352 17.8871C16.3379 17.6845 16.5883 17.5835 16.8867 17.5842C17.1857 17.5842 17.4366 17.6855 17.6392 17.8881C17.8418 18.0908 17.9428 18.3413 17.9421 18.6396C17.9421 18.9386 17.8408 19.1895 17.6381 19.3921C17.4355 19.5948 17.185 19.6957 16.8867 19.695Z" />
</svg>
