<svg width="35" height="35" viewBox="0 0 35 35" fill="none" xmlns="http://www.w3.org/2000/svg">
<path id="discord" d="M27.7468 8.30526C25.8759 7.43312 23.8503 6.80012 21.7403 6.43439C21.7218 6.4338 21.7034 6.43727 21.6864 6.44456C21.6694 6.45185 21.6542 6.46279 21.6419 6.47659C21.3887 6.94079 21.0933 7.54566 20.8963 8.00986C18.6583 7.67226 16.3824 7.67226 14.1443 8.00986C13.9474 7.53159 13.652 6.94079 13.3847 6.47659C13.3707 6.44846 13.3285 6.43439 13.2863 6.43439C11.1763 6.80012 9.16475 7.43312 7.27981 8.30526C7.26575 8.30526 7.25168 8.31932 7.23761 8.33339C3.41148 14.0585 2.35648 19.6289 2.87695 25.1431C2.87695 25.1712 2.89101 25.1993 2.91915 25.2134C5.45115 27.0702 7.88468 28.1955 10.2901 28.9411C10.3323 28.9551 10.3745 28.9411 10.3885 28.9129C10.9512 28.1393 11.4576 27.3234 11.8937 26.4653C11.9218 26.4091 11.8937 26.3528 11.8374 26.3387C11.0356 26.0293 10.276 25.6635 9.53048 25.2415C9.47421 25.2134 9.47421 25.129 9.51641 25.0868C9.67115 24.9743 9.82588 24.8477 9.98061 24.7351C10.0087 24.707 10.0509 24.707 10.0791 24.7211C14.918 26.9295 20.1367 26.9295 24.9194 24.7211C24.9475 24.707 24.9897 24.707 25.0179 24.7351C25.1726 24.8617 25.3273 24.9743 25.4821 25.1009C25.5383 25.1431 25.5383 25.2275 25.468 25.2556C24.7365 25.6917 23.9629 26.0433 23.1611 26.3528C23.1048 26.3669 23.0907 26.4372 23.1048 26.4794C23.5549 27.3375 24.0613 28.1533 24.6099 28.927C24.6521 28.9411 24.6943 28.9551 24.7365 28.9411C27.156 28.1955 29.5895 27.0702 32.1215 25.2134C32.1497 25.1993 32.1637 25.1712 32.1637 25.1431C32.7827 18.7709 31.1369 13.2427 27.8031 8.33339C27.789 8.31932 27.7749 8.30526 27.7468 8.30526ZM12.6251 21.7811C11.1763 21.7811 9.96655 20.4448 9.96655 18.799C9.96655 17.1532 11.1481 15.8169 12.6251 15.8169C14.1162 15.8169 15.2978 17.1673 15.2837 18.799C15.2837 20.4448 14.1021 21.7811 12.6251 21.7811ZM22.4296 21.7811C20.9807 21.7811 19.771 20.4448 19.771 18.799C19.771 17.1532 20.9526 15.8169 22.4296 15.8169C23.9207 15.8169 25.1023 17.1673 25.0882 18.799C25.0882 20.4448 23.9207 21.7811 22.4296 21.7811Z" />
</svg>
