<svg width="203" height="96" viewBox="0 0 203 96" fill="none" xmlns="http://www.w3.org/2000/svg">
<path fill-rule="evenodd" clip-rule="evenodd" d="M8.45678 13.1617C7.27908 14.2832 6.86667 15.3117 6.86667 16.3083L6.86708 60.5117L6.8679 82.4529V89.3003L6.86831 91.1818V91.6734V91.7991V91.8307V91.8382C6.86831 93.7376 5.33107 95.275 3.43498 95.275C1.53896 95.275 0.00167561 93.7376 0.00167561 91.841V91.8307V91.7991V91.6734V91.1818L0.00125651 89.3003V82.4536L0.000418699 60.5117L0 16.3075C0.000418867 13.0133 1.51926 10.2866 3.72125 8.18939C5.87127 6.14162 8.75514 4.59593 11.8977 3.4325C18.1939 1.10058 26.3547 0 34.3342 0C42.3132 0 50.4741 1.10058 56.7703 3.4325C59.9124 4.59593 62.7966 6.14162 64.9462 8.1885C67.1484 10.2857 68.6674 13.0133 68.6674 16.3075V38.0651L68.6667 82.0292C68.8129 82.1645 69.1274 82.4041 69.7537 82.7269C71.2142 83.4781 73.5351 84.2073 76.6354 84.8274C82.7742 86.0544 91.1138 86.6917 99.566 86.6917C108.019 86.6917 116.358 86.0544 122.497 84.8274C125.598 84.2073 127.918 83.4781 129.379 82.7269C129.48 82.6747 129.572 82.6252 129.657 82.5785C129.742 82.5318 129.819 82.4865 129.89 82.4433C129.937 82.4151 129.981 82.3883 130.022 82.3615C130.078 82.3252 130.128 82.2908 130.175 82.2592C130.31 82.1645 130.403 82.0876 130.467 82.0292V82.0155V81.9475V81.8781V81.8067V81.7346V81.6618V81.587V81.5115V81.4345V81.3563V81.2766V81.1963V81.1152V81.0329V80.9491V80.8632V80.7774V80.6902V80.6023V80.5124V80.4217V80.3297V80.2363V80.1429V80.0482V79.9513V79.8545V79.7563V79.6568V79.5558V79.4542V79.3512V79.2482V79.1438V79.0374V78.931V78.8225V78.7133V78.6034V78.4929V78.3809V78.2676V78.1537V78.039V77.9223V77.8055V77.6874V77.5686V77.4484V77.3283V77.2054V77.0831V76.9589V76.8353V76.7096V76.5826V76.4548V76.3264V76.1973V76.0662V75.9357V75.8032V75.6707V75.5368V75.4015V75.2662V75.1303V74.9929V74.8542V74.7155V74.5754V74.4347V74.2925V74.1504V74.0069V73.8627V73.7178V73.5722V73.4253V73.2776V73.1293V72.9803V72.8306V72.6802V72.5292V72.3767V72.2243V72.0698V71.9153V71.7608V71.6049V71.4477V71.2904V71.1325V70.9732V70.8139V70.6532V70.4925V70.3305V70.1691V70.005V69.8416V69.6768V69.5113V69.3465V69.1796V69.0121V68.8445V68.6756V68.5074V68.3371V68.1668V67.9958V67.8241V67.6525V67.4787V67.3057V67.132V66.9569V66.7818V66.6067V66.4295V66.2523V66.0752V65.8973V65.7181V65.5382V65.359V65.1789V64.9978V64.8167V64.6348V64.4521V64.2694V64.0858V63.9014V63.717V63.5318V63.3465V63.1604V62.9743V62.7874V62.5997V62.4119V62.2242V62.0355V61.8461V61.6567V61.4664V61.2761V61.085V60.8939V60.702V60.51V60.3172V60.1244V59.9308V59.7371V59.5427V59.3482V59.1537V58.9584V58.7623V58.567V58.3709V58.1739V57.9769V57.7799V57.5821V57.3843V57.1856V56.987V56.7883V56.5888V56.3893V56.1898V55.9895V55.7891V55.5888V55.3876V55.1865V54.9853V54.7833V54.5813V54.3793V54.1772V53.9744V53.7716V53.5687V53.3651V53.1613V52.9577V52.754V52.5494V52.3458V52.1412V51.9367V51.7313V51.5269V51.3215V51.1161V50.9107V50.7054V50.4992V50.2938V50.0876V49.8814V49.6752V49.469V49.2619V49.0557V48.8487V48.6425V48.4355V48.2284V48.0214V47.8144V47.6074V47.4003V47.1932V46.9854V46.7783V46.5713V46.3634V46.1564V45.9485V45.7415V45.5336V45.3265V45.1187V44.9108V44.7037V44.4959V44.2888V44.081V43.8739V43.6669V43.459V43.252V43.0449V42.8379V42.6308V42.4238V42.2167V42.0097V41.8035V41.5965V41.3895V41.1832V40.977V40.7708V40.5646V40.3584V40.153V39.9468V39.7415V39.5361V39.3308V39.1254V38.9201V38.7155V38.511V38.3065V38.102V37.8983V37.6937V37.4901V37.2863V37.0835V36.8807V36.6778V36.475V36.2721V36.0701V35.8681V35.6669V35.4649V35.2638V35.0626V34.8623V34.6619V34.4616V34.2621V34.0626V33.8631V33.6645V33.4658V33.2671V33.0693V32.8715V32.6745V32.4775V32.2805V32.0844V31.8883V31.693V31.4977V31.3023V31.1079V30.9134V30.7198V30.5262V30.3334V30.1405V29.9486V29.7567V29.5655V29.3744V29.1842V28.9939V28.8044V28.615V28.4264V28.2378V28.0501V27.8623V27.6754V27.4893V27.3032V27.118V26.9327V26.7483V26.5639V26.3804V26.1976V26.0148V25.833V25.6511V25.4709V25.2898V25.1104V24.9311V24.7525V24.574V24.3963V24.2194V24.0425V23.8665V23.6914V23.517V23.3426V23.1692V22.9965V22.8238V22.652V22.481V22.3108V22.1407V21.9722V21.8028V21.6352V21.4684V21.3016V21.1356V20.9705V20.8062V20.6419V20.4785V20.3167V20.1549V19.9931V19.8331V19.6738V19.5145V19.3561V19.1985V19.0417V18.8859V18.7308V18.5765V18.4223V18.2697V18.1172V17.9655V17.8154V17.6654V17.5162V17.3679V17.2203V17.0736V16.9278V16.7828V16.6386V16.4952V16.3519V16.2103V16.0694V15.9294V15.7903V15.652V15.5145V15.3779V15.2421V15.1071V14.973V14.8406V14.7082V14.5766V14.4466V14.3167V14.1885V14.0611V13.9336V13.8079V13.6839V13.5598V13.4366V13.3151V13.1935V13.0737V12.9547V12.8364V12.7191V12.6034V12.4877V12.3737V12.2606V12.1491V12.0376V11.9278V11.8188V11.7107V11.6034V11.4978V11.393V11.2891V11.186V11.0846V10.984V10.8842V10.7853V10.6881V10.5917V10.497V10.4022V10.3092V10.2179V10.1265V10.0368V9.94877V9.86081V9.77525V9.68976V9.60599V9.52297V9.44167V9.36119V9.28154V9.2036V9.12649V9.0502V8.97563V8.9027V8.8306V8.75933V8.68977V8.62103V8.55401V8.48775V8.42238V8.35955V8.29665V8.23547V8.17593V8.11729V8.0603V8.00413V7.94879V7.89516V7.84318V7.79209V7.74258V7.69486V7.64706V7.60181V7.55738V7.51461V7.47272V7.43248V7.39307V7.35537V7.31932V7.28409V7.25058V7.21872V7.18768V7.15836V7.12987V7.10302V7.07789V7.0544V7.03181V7.01087V6.99075V6.97228V6.95552V6.94042V6.9262V6.91363V6.90272V6.89352V6.88514V6.87841V6.87003C130.467 6.86831 130.467 6.86749 130.699 6.86749L130.467 6.86667C130.467 4.97064 132.004 3.43333 133.9 3.43333C135.796 3.43333 137.333 4.97064 137.333 6.86749V6.87841V6.88514V6.89352V6.90272V6.91363V6.9262V6.94042V6.95552V6.97228V6.99075V7.01087V7.03181V7.0544V7.07789V7.10302V7.12987V7.15836V7.18768V7.21872V7.25058V7.28409V7.31932V7.35537V7.39307V7.43248V7.47272V7.51461V7.55738V7.60181V7.64706V7.69486V7.74258V7.79209V7.84318V7.89516V7.94879V8.00413V8.0603V8.11729V8.17593V8.23547V8.29665V8.35955V8.42238V8.48775V8.55401V8.62103V8.68977V8.75933V8.8306V8.9027V8.97563V9.0502V9.12649V9.2036V9.28154V9.36119V9.44167V9.52297V9.60599V9.68976V9.77525V9.86081V9.94877V10.0368V10.1265V10.2179V10.3092V10.4022V10.497V10.5917V10.6881V10.7853V10.8842V10.984V11.0846V11.186V11.2891V11.393V11.4978V11.6034V11.7107V11.8188V11.9278V12.0376V12.1491V12.2606V12.3737V12.4877V12.6034V12.7191V12.8364V12.9547V13.0737V13.1935V13.3151V13.4366V13.5598V13.6839V13.8079V13.9336V14.0611V14.1885V14.3167V14.4466V14.5766V14.7082V14.8406V14.973V15.1071V15.2421V15.3779V15.5145V15.652V15.7903V15.9294V16.0694V16.2103V16.3519V16.4952V16.6386V16.7828V16.9278V17.0736V17.2203V17.3679V17.5162V17.6654V17.8154V17.9655V18.1172V18.2697V18.4223V18.5765V18.7308V18.8859V19.0417V19.1985V19.3561V19.5145V19.6738V19.8331V19.9931V20.1549V20.3167V20.4785V20.6419V20.8062V20.9705V21.1356V21.3016V21.4684V21.6352V21.8028V21.9722V22.1407V22.3108V22.481V22.652V22.8238V22.9965V23.1692V23.3426V23.517V23.6914V23.8665V24.0425V24.2194V24.3963V24.574V24.7525V24.9311V25.1104V25.2898V25.4709V25.6511V25.833V26.0148V26.1976V26.3804V26.5639V26.7483V26.9327V27.118V27.3032V27.4893V27.6754V27.8623V28.0501V28.2378V28.4264V28.615V28.8044V28.9939V29.1842V29.3744V29.5655V29.7567V29.9486V30.1405V30.3334V30.5262V30.7198V30.9134V31.1079V31.3023V31.4977V31.693V31.8883V32.0844V32.2805V32.4775V32.6745V32.8715V33.0693V33.2671V33.4658V33.6645V33.8631V34.0626V34.2621V34.4616V34.6619V34.8623V35.0626V35.2638V35.4649V35.6669V35.8681V36.0701V36.2721V36.475V36.6778V36.8807V37.0835V37.2863V37.4901V37.6937V37.8983V38.102V38.3065V38.511V38.7155V38.9201V39.1254V39.3308V39.5361V39.7415V39.9468V40.153V40.3584V40.5646V40.7708V40.977V41.1832V41.3895V41.5965V41.8035V42.0097V42.2167V42.4238V42.6308V42.8379V43.0449V43.252V43.459V43.6669V43.8739V44.081V44.2888V44.4959V44.7037V44.9108V45.1187V45.3265V45.5336V45.7415V45.9485V46.1564V46.3634V46.5713V46.7783V46.9854V47.1932V47.4003V47.6074V47.8144V48.0214V48.2284V48.4355V48.6425V48.8487V49.0557V49.2619V49.469V49.6752V49.8814V50.0876V50.2938V50.4992V50.7054V50.9107V51.1161V51.3215V51.5269V51.7313V51.9367V52.1412V52.3458V52.5494V52.754V52.9577V53.1613V53.3651V53.5687V53.7716V53.9744V54.1772V54.3793V54.5813V54.7833V54.9853V55.1865V55.3876V55.5888V55.7891V55.9895V56.1898V56.3893V56.5888V56.7883V56.987V57.1856V57.3843V57.5821V57.7799V57.9769V58.1739V58.3709V58.567V58.7623V58.9584V59.1537V59.3482V59.5427V59.7371V59.9308V60.1244V60.3172V60.51V60.702V60.8939V61.085V61.2761V61.4664V61.6567V61.8461V62.0355V62.2242V62.4119V62.5997V62.7874V62.9743V63.1604V63.3465V63.5318V63.717V63.9014V64.0858V64.2694V64.4521V64.6348V64.8167V64.9978V65.1789V65.359V65.5382V65.7181V65.8973V66.0752V66.2523V66.4295V66.6067V66.7818V66.9569V67.132V67.3057V67.4787V67.6525V67.8241V67.9958V68.1668V68.3371V68.5074V68.6756V68.8445V69.0121V69.1796V69.3465V69.5113V69.6768V69.8416V70.005V70.1691V70.3305V70.4925V70.6532V70.8139V70.9732V71.1325V71.2904V71.4477V71.6049V71.7608V71.9153V72.0698V72.2243V72.3767V72.5292V72.6802V72.8306V72.9803V73.1293V73.2776V73.4253V73.5722V73.7178V73.8627V74.0069V74.1504V74.2925V74.4347V74.5754V74.7155V74.8542V74.9929V75.1303V75.2662V75.4015V75.5368V75.6707V75.8032V75.9357V76.0662V76.1973V76.3264V76.4548V76.5826V76.7096V76.8353V76.9589V77.0831V77.2054V77.3283V77.4484V77.5686V77.6874V77.8055V77.9223V78.039V78.1537V78.2676V78.3809V78.4929V78.6034V78.7133V78.8225V78.931V79.0374V79.1438V79.2482V79.3512V79.4542V79.5558V79.6568V79.7563V79.8545V79.9513V80.0482V80.1429V80.2363V80.3297V80.4217V80.5124V80.6023V80.6902V80.7774V80.8632V80.9491V81.0329V81.1152V81.1963V81.2766V81.3563V81.4345V81.5115V81.587V81.6618V81.7346V81.8067V81.8781V81.9475V82.0155V82.0814C137.464 82.2098 137.751 82.4426 138.337 82.7605C139.694 83.4945 141.868 84.2169 144.8 84.8342C150.602 86.0551 158.501 86.6917 166.517 86.6917C174.533 86.6917 182.431 86.0551 188.233 84.8342C191.165 84.2169 193.339 83.4945 194.696 82.7605C195.283 82.4426 195.57 82.2098 195.7 82.0814V40.7708V17.2203V9.68976V7.60181V7.0544V6.91363V6.87841V6.87003C195.7 6.86831 195.7 6.86749 195.815 6.86749L195.7 6.86667C195.7 4.97064 197.237 3.43333 199.133 3.43333C201.029 3.43333 202.567 4.97064 202.567 6.86749V6.87841V6.91363V7.0544V7.60181V9.68976V17.2203V40.7708V82.4C202.567 85.7056 199.974 87.7121 197.965 88.799C195.754 89.9959 192.832 90.8838 189.648 91.5533C183.219 92.9074 174.809 93.5583 166.517 93.5583C158.224 93.5583 149.814 92.9074 143.385 91.5533C140.202 90.8838 137.279 89.9959 135.069 88.799C134.867 88.6899 134.659 88.5718 134.449 88.4434C134.251 88.3225 134.051 88.1941 133.851 88.0554C133.715 88.146 133.578 88.2332 133.443 88.3163C133.31 88.3973 133.178 88.4756 133.046 88.5491L132.904 88.6288L132.764 88.705C132.681 88.7496 132.6 88.7922 132.52 88.8334C130.225 90.0138 127.181 90.8927 123.844 91.5608C117.108 92.9081 108.28 93.5583 99.566 93.5583C90.8515 93.5583 82.0251 92.9081 75.2889 91.5608C71.9524 90.8927 68.9077 90.0138 66.6135 88.8334C64.5774 87.7862 61.7996 85.7956 61.8 82.4L61.8004 38.0651V16.3075C61.8004 15.3109 61.3884 14.2832 60.2107 13.1617C58.9807 11.9898 57.0364 10.8532 54.3852 9.87166C49.0943 7.91191 41.8047 6.86667 34.3342 6.86667C26.8636 6.86667 19.5741 7.91191 14.2824 9.87166C11.6311 10.8541 9.68688 11.9907 8.45678 13.1617ZM99.5667 30.9C99.5667 34.6921 96.4925 37.7667 92.7 37.7667C88.9075 37.7667 85.8333 34.6921 85.8333 30.9C85.8333 27.1079 88.9075 24.0333 92.7 24.0333C96.4925 24.0333 99.5667 27.1079 99.5667 30.9ZM44.6333 37.7667C48.4259 37.7667 51.5 34.6921 51.5 30.9C51.5 27.1079 48.4259 24.0333 44.6333 24.0333C40.8408 24.0333 37.7667 27.1079 37.7667 30.9C37.7667 34.6921 40.8408 37.7667 44.6333 37.7667ZM51.5 72.1C51.5 75.8918 48.4259 78.9667 44.6333 78.9667C40.8408 78.9667 37.7667 75.8918 37.7667 72.1C37.7667 68.3082 40.8408 65.2333 44.6333 65.2333C48.4259 65.2333 51.5 68.3082 51.5 72.1ZM44.6333 58.3667C48.4259 58.3667 51.5 55.2921 51.5 51.5C51.5 47.7079 48.4259 44.6333 44.6333 44.6333C40.8408 44.6333 37.7667 47.7079 37.7667 51.5C37.7667 55.2921 40.8408 58.3667 44.6333 58.3667ZM30.9 51.5C30.9 55.2921 27.8259 58.3667 24.0333 58.3667C20.2408 58.3667 17.1667 55.2921 17.1667 51.5C17.1667 47.7079 20.2408 44.6333 24.0333 44.6333C27.8259 44.6333 30.9 47.7079 30.9 51.5ZM113.3 58.3667C117.092 58.3667 120.167 55.2921 120.167 51.5C120.167 47.7079 117.092 44.6333 113.3 44.6333C109.508 44.6333 106.433 47.7079 106.433 51.5C106.433 55.2921 109.508 58.3667 113.3 58.3667ZM168.233 51.5C168.233 55.2921 165.159 58.3667 161.367 58.3667C157.574 58.3667 154.5 55.2921 154.5 51.5C154.5 47.7079 157.574 44.6333 161.367 44.6333C165.159 44.6333 168.233 47.7079 168.233 51.5ZM161.367 37.7667C165.159 37.7667 168.233 34.6921 168.233 30.9C168.233 27.1079 165.159 24.0333 161.367 24.0333C157.574 24.0333 154.5 27.1079 154.5 30.9C154.5 34.6921 157.574 37.7667 161.367 37.7667ZM68.5534 81.9056C68.5541 81.9056 68.5609 81.9132 68.5705 81.9296L68.5589 81.9152L68.5534 81.9056Z" fill="#FEF2F4"/>
</svg>
