<svg width="100" height="100" viewBox="0 0 100 100" fill="none" xmlns="http://www.w3.org/2000/svg">
<path id="module_5" d="M83.4609 32.1641L61.5859 10.2891C61.2955 9.99896 60.9508 9.76891 60.5714 9.61207C60.192 9.45524 59.7855 9.37468 59.375 9.375H21.875C20.2174 9.375 18.6277 10.0335 17.4556 11.2056C16.2835 12.3777 15.625 13.9674 15.625 15.625V43.75C15.625 44.5788 15.9542 45.3737 16.5403 45.9597C17.1263 46.5458 17.9212 46.875 18.75 46.875C19.5788 46.875 20.3737 46.5458 20.9597 45.9597C21.5458 45.3737 21.875 44.5788 21.875 43.75V15.625H56.25V34.375C56.25 35.2038 56.5792 35.9987 57.1653 36.5847C57.7513 37.1708 58.5462 37.5 59.375 37.5H78.125V84.375H68.75C67.9212 84.375 67.1263 84.7042 66.5403 85.2903C65.9542 85.8763 65.625 86.6712 65.625 87.5C65.625 88.3288 65.9542 89.1237 66.5403 89.7097C67.1263 90.2958 67.9212 90.625 68.75 90.625H78.125C79.7826 90.625 81.3723 89.9665 82.5444 88.7944C83.7165 87.6223 84.375 86.0326 84.375 84.375V34.375C84.3753 33.9645 84.2948 33.558 84.1379 33.1786C83.9811 32.7992 83.751 32.4545 83.4609 32.1641ZM62.5 20.043L73.707 31.25H62.5V20.043ZM57.7383 76.6836C57.6165 77.8788 57.2314 79.0322 56.6107 80.0609C55.99 81.0895 55.1491 81.9679 54.1484 82.6328C52.1211 83.9844 49.6094 84.375 47.3164 84.375C45.3137 84.3636 43.3203 84.1011 41.3828 83.5938C40.5846 83.3705 39.9077 82.8393 39.5011 82.117C39.0946 81.3947 38.9916 80.5404 39.2148 79.7422C39.4381 78.9439 39.9693 78.2671 40.6916 77.8605C41.4139 77.4539 42.2682 77.351 43.0664 77.5742C44.7773 78.043 48.9258 78.6289 50.7031 77.4336C51.0469 77.2031 51.418 76.8398 51.5391 75.8984C51.6719 74.8555 51.2617 74.2969 46.5469 72.9336C42.8945 71.8789 36.7813 70.1094 37.5625 63.9063C37.6844 62.7346 38.0625 61.6041 38.67 60.5949C39.2776 59.5856 40.0997 58.7224 41.0781 58.0664C45.7031 54.9414 53.0742 56.7734 53.9023 56.9883C54.7042 57.1991 55.3895 57.7198 55.8074 58.4359C56.2253 59.152 56.3417 60.0048 56.1309 60.8066C55.92 61.6085 55.3993 62.2938 54.6832 62.7117C53.9671 63.1296 53.1144 63.246 52.3125 63.0352C50.5586 62.5781 46.3633 62.0352 44.5664 63.2539C44.3309 63.4128 44.137 63.626 44.001 63.8755C43.865 64.1249 43.791 64.4034 43.7852 64.6875C43.7383 65.0391 43.7305 65.1133 44.2188 65.4297C45.1211 66.0117 46.7383 66.4766 48.3008 66.9297C52.1445 68.0352 58.6133 69.9219 57.7383 76.6836ZM31.25 59.375V74.2188C31.25 76.9124 30.18 79.4956 28.2753 81.4003C26.3706 83.305 23.7874 84.375 21.0938 84.375C18.4001 84.375 15.8169 83.305 13.9122 81.4003C12.0075 79.4956 10.9375 76.9124 10.9375 74.2188C10.9375 73.3899 11.2667 72.5951 11.8528 72.009C12.4388 71.423 13.2337 71.0938 14.0625 71.0938C14.8913 71.0938 15.6862 71.423 16.2722 72.009C16.8583 72.5951 17.1875 73.3899 17.1875 74.2188C17.1875 75.2548 17.5991 76.2483 18.3316 76.9809C19.0642 77.7135 20.0577 78.125 21.0938 78.125C22.1298 78.125 23.1233 77.7135 23.8559 76.9809C24.5884 76.2483 25 75.2548 25 74.2188V59.375C25 58.5462 25.3292 57.7513 25.9153 57.1653C26.5013 56.5792 27.2962 56.25 28.125 56.25C28.9538 56.25 29.7487 56.5792 30.3347 57.1653C30.9208 57.7513 31.25 58.5462 31.25 59.375Z"/>
</svg>
