<svg width="100" height="100" viewBox="0 0 100 100" fill="none" xmlns="http://www.w3.org/2000/svg">
<g id="module_3">
<path d="M50 62.5C47.5277 62.5 45.111 61.7669 43.0554 60.3934C40.9998 59.0199 39.3976 57.0676 38.4515 54.7835C37.5054 52.4995 37.2579 49.9861 37.7402 47.5614C38.2225 45.1366 39.413 42.9093 41.1612 41.1612C42.9093 39.413 45.1366 38.2225 47.5614 37.7402C49.9861 37.2579 52.4995 37.5054 54.7835 38.4515C57.0676 39.3976 59.0199 40.9998 60.3934 43.0554C61.7669 45.111 62.5 47.5277 62.5 50C62.4959 53.3139 61.1776 56.491 58.8343 58.8343C56.491 61.1776 53.3139 62.4959 50 62.5ZM50 43.75C48.7639 43.75 47.5555 44.1166 46.5277 44.8033C45.4999 45.4901 44.6988 46.4662 44.2258 47.6082C43.7527 48.7503 43.6289 50.0069 43.8701 51.2193C44.1113 52.4317 44.7065 53.5453 45.5806 54.4194C46.4547 55.2935 47.5683 55.8888 48.7807 56.1299C49.9931 56.3711 51.2497 56.2473 52.3918 55.7743C53.5338 55.3012 54.5099 54.5001 55.1967 53.4723C55.8835 52.4445 56.25 51.2361 56.25 50C56.2484 48.3429 55.5893 46.7542 54.4176 45.5824C53.2459 44.4107 51.6571 43.7517 50 43.75Z" />
<path d="M50 75C42.9001 74.8102 36.0469 72.3552 30.4415 67.9934C24.8361 63.6317 20.7723 57.5919 18.8438 50.7563L18.6562 50L18.8438 49.2438C20.7723 42.4081 24.8361 36.3683 30.4415 32.0066C36.0469 27.6448 42.9001 25.1898 50 25C57.0999 25.1898 63.9531 27.6448 69.5585 32.0066C75.1639 36.3683 79.2277 42.4081 81.1562 49.2438L81.3438 50L81.1562 50.7563C79.2277 57.5919 75.1639 63.6317 69.5585 67.9934C63.9531 72.3552 57.0999 74.8102 50 75ZM25.1094 50C26.7949 55.3246 30.0978 59.9916 34.5588 63.352C39.0198 66.7125 44.417 68.5992 50 68.75C55.583 68.5992 60.9803 66.7125 65.4412 63.352C69.9022 59.9916 73.2051 55.3246 74.8906 50C73.2051 44.6754 69.9022 40.0084 65.4412 36.648C60.9803 33.2875 55.583 31.4008 50 31.25C44.417 31.4008 39.0198 33.2875 34.5588 36.648C30.0978 40.0084 26.7949 44.6754 25.1094 50Z" />
<path d="M50 93.75C41.3471 93.75 32.8884 91.1841 25.6938 86.3768C18.4991 81.5695 12.8916 74.7367 9.58026 66.7424C6.26893 58.7481 5.40253 49.9515 7.09063 41.4648C8.77874 32.9781 12.9455 25.1826 19.0641 19.0641C25.1826 12.9455 32.9781 8.77875 41.4648 7.09065C49.9515 5.40254 58.7481 6.26894 66.7424 9.58027C74.7367 12.8916 81.5695 18.4992 86.3768 25.6938C91.1841 32.8885 93.75 41.3471 93.75 50C93.7368 61.5992 89.1231 72.7195 80.9213 80.9213C72.7194 89.1232 61.5991 93.7368 50 93.75ZM50 12.5C42.5832 12.5 35.3329 14.6993 29.1661 18.8199C22.9993 22.9404 18.1928 28.7971 15.3545 35.6494C12.5162 42.5016 11.7736 50.0416 13.2205 57.3159C14.6675 64.5902 18.239 71.272 23.4835 76.5165C28.728 81.761 35.4098 85.3325 42.6841 86.7794C49.9584 88.2264 57.4984 87.4838 64.3506 84.6455C71.2028 81.8072 77.0595 77.0007 81.1801 70.8339C85.3007 64.667 87.5 57.4168 87.5 50C87.4884 40.0579 83.5338 30.5264 76.5037 23.4963C69.4736 16.4662 59.9421 12.5116 50 12.5Z" />
</g>
</svg>
