<svg width="100" height="100" viewBox="0 0 100 100" fill="none" xmlns="http://www.w3.org/2000/svg">
<path id="module_2" d="M50 59.375C50 60.2038 49.6708 60.9987 49.0847 61.5847C48.4987 62.1708 47.7038 62.5 46.875 62.5H43.75V81.25C43.75 82.0788 43.4208 82.8737 42.8347 83.4597C42.2487 84.0458 41.4538 84.375 40.625 84.375C39.7962 84.375 39.0013 84.0458 38.4153 83.4597C37.8292 82.8737 37.5 82.0788 37.5 81.25V62.5H34.375C33.5462 62.5 32.7513 62.1708 32.1653 61.5847C31.5792 60.9987 31.25 60.2038 31.25 59.375C31.25 58.5462 31.5792 57.7513 32.1653 57.1653C32.7513 56.5792 33.5462 56.25 34.375 56.25H46.875C47.7038 56.25 48.4987 56.5792 49.0847 57.1653C49.6708 57.7513 50 58.5462 50 59.375ZM25 56.25C24.1712 56.25 23.3763 56.5792 22.7903 57.1653C22.2042 57.7513 21.875 58.5462 21.875 59.375V67.1875H15.625V59.375C15.625 58.5462 15.2958 57.7513 14.7097 57.1653C14.1237 56.5792 13.3288 56.25 12.5 56.25C11.6712 56.25 10.8763 56.5792 10.2903 57.1653C9.70424 57.7513 9.375 58.5462 9.375 59.375V81.25C9.375 82.0788 9.70424 82.8737 10.2903 83.4597C10.8763 84.0458 11.6712 84.375 12.5 84.375C13.3288 84.375 14.1237 84.0458 14.7097 83.4597C15.2958 82.8737 15.625 82.0788 15.625 81.25V73.4375H21.875V81.25C21.875 82.0788 22.2042 82.8737 22.7903 83.4597C23.3763 84.0458 24.1712 84.375 25 84.375C25.8288 84.375 26.6237 84.0458 27.2097 83.4597C27.7958 82.8737 28.125 82.0788 28.125 81.25V59.375C28.125 58.5462 27.7958 57.7513 27.2097 57.1653C26.6237 56.5792 25.8288 56.25 25 56.25ZM93.75 78.125H89.0625V59.375C89.0625 58.5462 88.7333 57.7513 88.1472 57.1653C87.5612 56.5792 86.7663 56.25 85.9375 56.25C85.1087 56.25 84.3138 56.5792 83.7278 57.1653C83.1417 57.7513 82.8125 58.5462 82.8125 59.375V81.25C82.8125 82.0788 83.1417 82.8737 83.7278 83.4597C84.3138 84.0458 85.1087 84.375 85.9375 84.375H93.75C94.5788 84.375 95.3737 84.0458 95.9597 83.4597C96.5458 82.8737 96.875 82.0788 96.875 81.25C96.875 80.4212 96.5458 79.6263 95.9597 79.0403C95.3737 78.4542 94.5788 78.125 93.75 78.125ZM75.8359 56.3633C75.1772 56.1803 74.4767 56.2184 73.8417 56.4717C73.2067 56.7249 72.6722 57.1795 72.3203 57.7656L65.625 68.9258L58.9297 57.7656C58.578 57.1795 58.0438 56.7248 57.409 56.4713C56.7742 56.2177 56.0738 56.1794 55.4151 56.362C54.7564 56.5446 54.1757 56.9382 53.7621 57.4824C53.3484 58.0266 53.1246 58.6914 53.125 59.375V81.25C53.125 82.0788 53.4542 82.8737 54.0403 83.4597C54.6263 84.0458 55.4212 84.375 56.25 84.375C57.0788 84.375 57.8737 84.0458 58.4597 83.4597C59.0458 82.8737 59.375 82.0788 59.375 81.25V70.6562L62.9453 76.6094C63.223 77.0721 63.6157 77.4551 64.0853 77.721C64.5549 77.9869 65.0854 78.1266 65.625 78.1266C66.1646 78.1266 66.6951 77.9869 67.1647 77.721C67.6343 77.4551 68.027 77.0721 68.3047 76.6094L71.875 70.6562V81.25C71.875 82.0788 72.2042 82.8737 72.7903 83.4597C73.3763 84.0458 74.1712 84.375 75 84.375C75.8288 84.375 76.6237 84.0458 77.2097 83.4597C77.7958 82.8737 78.125 82.0788 78.125 81.25V59.375C78.1251 58.6918 77.9014 58.0274 77.4879 57.4834C77.0745 56.9395 76.4942 56.546 75.8359 56.3633ZM81.25 46.875C80.4212 46.875 79.6263 46.5458 79.0403 45.9597C78.4542 45.3737 78.125 44.5788 78.125 43.75V37.5H59.375C58.5462 37.5 57.7513 37.1708 57.1653 36.5847C56.5792 35.9987 56.25 35.2038 56.25 34.375V15.625H21.875V43.75C21.875 44.5788 21.5458 45.3737 20.9597 45.9597C20.3737 46.5458 19.5788 46.875 18.75 46.875C17.9212 46.875 17.1263 46.5458 16.5403 45.9597C15.9542 45.3737 15.625 44.5788 15.625 43.75V15.625C15.625 13.9674 16.2835 12.3777 17.4556 11.2056C18.6277 10.0335 20.2174 9.375 21.875 9.375H59.375C59.7855 9.37468 60.192 9.45524 60.5714 9.61207C60.9508 9.76891 61.2955 9.99896 61.5859 10.2891L83.4609 32.1641C83.751 32.4545 83.9811 32.7992 84.1379 33.1786C84.2948 33.558 84.3753 33.9645 84.375 34.375V43.75C84.375 44.5788 84.0458 45.3737 83.4597 45.9597C82.8737 46.5458 82.0788 46.875 81.25 46.875ZM73.707 31.25L62.5 20.043V31.25H73.707Z"/>
</svg>
