<svg width="100" height="100" viewBox="0 0 100 100" fill="none" xmlns="http://www.w3.org/2000/svg">
<path id="module_4" d="M18.75 70.3125C18.75 74.6094 21.5547 78.125 25 78.125C25.7541 78.1081 26.4969 77.938 27.1832 77.6251C27.8695 77.3122 28.4849 76.8629 28.9922 76.3047C29.2719 75.9928 29.6115 75.7403 29.9908 75.5622C30.3701 75.3842 30.7813 75.2842 31.1999 75.2683C31.6186 75.2523 32.0362 75.3208 32.4279 75.4695C32.8196 75.6182 33.1774 75.8442 33.4801 76.1339C33.7827 76.4237 34.0239 76.7714 34.1895 77.1563C34.355 77.5412 34.4415 77.9554 34.4437 78.3744C34.4459 78.7934 34.3639 79.2085 34.2024 79.5952C34.041 79.9818 33.8034 80.332 33.5039 80.625C32.4171 81.7969 31.102 82.7342 29.6396 83.3791C28.1772 84.024 26.5983 84.3629 25 84.375C18.1055 84.375 12.5 78.0664 12.5 70.3125C12.5 62.5586 18.1055 56.25 25 56.25C26.5983 56.2621 28.1772 56.601 29.6396 57.2459C31.102 57.8908 32.4171 58.8281 33.5039 60C33.8034 60.293 34.041 60.6432 34.2024 61.0298C34.3639 61.4165 34.4459 61.8316 34.4437 62.2506C34.4415 62.6696 34.355 63.0838 34.1895 63.4687C34.0239 63.8536 33.7827 64.2013 33.4801 64.4911C33.1774 64.7808 32.8196 65.0068 32.4279 65.1555C32.0362 65.3042 31.6186 65.3727 31.1999 65.3567C30.7813 65.3408 30.3701 65.2408 29.9908 65.0628C29.6115 64.8847 29.2719 64.6322 28.9922 64.3203C28.4849 63.7621 27.8695 63.3128 27.1832 62.9999C26.4969 62.687 25.7541 62.5169 25 62.5C21.5547 62.5 18.75 66.0156 18.75 70.3125ZM49.8438 66.918C48.2812 66.4648 46.6641 66 45.7617 65.418C45.2695 65.1016 45.2812 65.0273 45.3242 64.6758C45.3301 64.3917 45.4041 64.1132 45.5401 63.8637C45.676 63.6143 45.8699 63.4011 46.1055 63.2422C47.9023 62.0234 52.0977 62.5664 53.8516 63.0234C54.6534 63.2343 55.5062 63.1179 56.2223 62.7C56.9384 62.2821 57.4591 61.5968 57.6699 60.7949C57.8807 59.9931 57.7644 59.1403 57.3465 58.4242C56.9285 57.7081 56.2433 57.1874 55.4414 56.9766C54.6133 56.7617 47.2383 54.9375 42.6172 58.0547C41.6386 58.7105 40.8163 59.5737 40.2087 60.5829C39.6012 61.5922 39.2232 62.7228 39.1016 63.8945C38.3203 70.0977 44.4297 71.8672 48.0859 72.9219C52.8008 74.2852 53.2148 74.8438 53.0781 75.8867C52.957 76.8281 52.5859 77.1914 52.2422 77.4219C50.4453 78.6172 46.3164 78.0312 44.6055 77.5625C43.8111 77.3517 42.9656 77.4624 42.2523 77.8706C41.5389 78.2787 41.015 78.9515 40.7941 79.7431C40.5732 80.5347 40.6731 81.3815 41.0721 82.1001C41.471 82.8186 42.137 83.351 42.9258 83.582C44.8619 84.0895 46.854 84.352 48.8555 84.3633C51.1328 84.3633 53.6602 83.9727 55.6875 82.6211C56.6881 81.9562 57.529 81.0778 58.1497 80.0492C58.7705 79.0205 59.1555 77.8671 59.2773 76.6719C60.1562 69.9219 53.7031 68.0352 49.8438 66.918ZM74.8438 66.918C73.2813 66.4648 71.6641 66 70.7617 65.418C70.2734 65.1016 70.2812 65.0273 70.3242 64.6758C70.3301 64.3917 70.4041 64.1132 70.5401 63.8637C70.676 63.6143 70.8699 63.4011 71.1055 63.2422C72.9023 62.0234 77.0977 62.5664 78.8477 63.0234C79.6495 63.2343 80.5023 63.1179 81.2184 62.7C81.9345 62.2821 82.4552 61.5968 82.666 60.7949C82.8768 59.9931 82.7605 59.1403 82.3426 58.4242C81.9246 57.7081 81.2394 57.1874 80.4375 56.9766C79.6133 56.7617 72.2344 54.9375 67.6133 58.0547C66.6389 58.7131 65.8208 59.5773 65.2167 60.5864C64.6126 61.5954 64.2373 62.7247 64.1172 63.8945C63.3359 70.0977 69.4492 71.8672 73.1016 72.9219C77.8125 74.2852 78.2266 74.8438 78.0938 75.8867C77.9727 76.8281 77.6016 77.1914 77.2539 77.4219C75.457 78.6172 71.332 78.0312 69.6211 77.5625C68.8213 77.3398 67.9658 77.4439 67.2427 77.8519C66.5197 78.2599 65.9884 78.9385 65.7656 79.7383C65.5429 80.5381 65.647 81.3936 66.055 82.1166C66.4631 82.8397 67.1416 83.371 67.9414 83.5938C69.8788 84.1011 71.8723 84.3636 73.875 84.375C76.1484 84.375 78.6797 83.9844 80.707 82.6328C81.7071 81.9677 82.5474 81.0892 83.1675 80.0605C83.7875 79.0319 84.1719 77.8786 84.293 76.6836C85.1562 69.9219 78.7031 68.0352 74.8398 66.918H74.8438ZM15.625 43.75V15.625C15.625 13.9674 16.2835 12.3777 17.4556 11.2056C18.6277 10.0335 20.2174 9.375 21.875 9.375H59.375C59.7855 9.37468 60.192 9.45524 60.5714 9.61207C60.9508 9.76891 61.2955 9.99896 61.5859 10.2891L83.4609 32.1641C83.751 32.4545 83.9811 32.7992 84.1379 33.1786C84.2948 33.558 84.3753 33.9645 84.375 34.375V43.75C84.375 44.5788 84.0458 45.3737 83.4597 45.9597C82.8737 46.5458 82.0788 46.875 81.25 46.875C80.4212 46.875 79.6263 46.5458 79.0403 45.9597C78.4542 45.3737 78.125 44.5788 78.125 43.75V37.5H59.375C58.5462 37.5 57.7513 37.1708 57.1653 36.5847C56.5792 35.9987 56.25 35.2038 56.25 34.375V15.625H21.875V43.75C21.875 44.5788 21.5458 45.3737 20.9597 45.9597C20.3737 46.5458 19.5788 46.875 18.75 46.875C17.9212 46.875 17.1263 46.5458 16.5403 45.9597C15.9542 45.3737 15.625 44.5788 15.625 43.75ZM62.5 31.25H73.7031L62.5 20.043V31.25Z"/>
</svg>
