<svg width="100" height="100" viewBox="0 0 100 100" fill="none" xmlns="http://www.w3.org/2000/svg">
<path id="module_8" d="M23.2292 8.64167C23.7596 8.89673 24.2073 9.29643 24.5206 9.79475C24.8339 10.2931 25.0001 10.8697 25 11.4583C25 14.9167 26.3 16.9083 27.9292 19.3333L28.05 19.5083C29.4333 21.5667 31.25 24.2625 31.25 28.125C31.25 32.0667 29.2625 35.5417 26.2333 37.6042C27.0292 38.2708 27.7333 39.0917 28.3417 40.075C30.325 43.2833 31.25 48.1875 31.25 55.2292C31.25 62.3625 30.2917 70.9292 28.7292 77.7708C27.9542 81.1708 26.9917 84.3083 25.8458 86.6625C25.3049 87.8338 24.5883 88.9157 23.7208 89.8708C22.8625 90.75 21.5417 91.6875 19.7917 91.6875C18.0417 91.6875 16.7208 90.75 15.8667 89.8708C14.9967 88.9177 14.2799 87.8354 13.7417 86.6625C12.5917 84.3042 11.6292 81.1708 10.8542 77.7667C9.22894 70.3614 8.38405 62.8063 8.33333 55.225C8.33333 48.1833 9.25833 43.2833 11.2417 40.075C11.8075 39.1437 12.5193 38.3095 13.35 37.6042C11.8032 36.554 10.5372 35.141 9.66272 33.4885C8.7882 31.8361 8.33177 29.9946 8.33333 28.125C8.33333 26.5917 8.33333 23.9542 9.92917 20.55C11.4917 17.2167 14.4625 13.3875 19.9208 9.01667C20.3809 8.64868 20.9355 8.41823 21.5209 8.35188C22.1063 8.28553 22.6984 8.38599 23.2292 8.64167ZM14.5833 28.1208C14.5833 29.5022 15.1321 30.8311 16.1088 31.8078C17.0856 32.7846 18.4103 33.3333 19.7917 33.3333C21.173 33.3333 22.4978 32.7846 23.4745 31.8078C24.4513 30.8311 25 29.5063 25 28.125C25 26.2958 24.2292 25.0292 22.7417 22.8167L22.6917 22.7417C21.7375 21.325 20.6083 19.6458 19.8083 17.4917C17.5458 19.7917 16.2958 21.7 15.5917 23.2C14.5833 25.35 14.5833 26.8833 14.5833 28.1208ZM16.5583 43.3583C15.525 45.0333 14.5833 48.4667 14.5833 55.2292C14.5833 61.9 15.4917 70 16.9458 76.3792C17.6792 79.5875 18.5125 82.1917 19.3583 83.925C19.5125 84.2458 19.6583 84.5125 19.7917 84.7375C19.925 84.5125 20.0708 84.2458 20.225 83.925C21.0708 82.1917 21.9042 79.5833 22.6375 76.3792C24.0958 70.0042 25 61.9042 25 55.2292C25 48.4667 24.0583 45.0333 23.025 43.3583C22.7134 42.7944 22.2423 42.335 21.6708 42.0375C21.0791 41.7798 20.4365 41.6601 19.7917 41.6875C18.9583 41.6875 18.3625 41.8167 17.9125 42.0375C17.341 42.335 16.87 42.7944 16.5583 43.3583ZM41.6667 62.1583C39.4592 61.7881 37.312 61.1209 35.2833 60.175C35.4053 57.8118 35.44 55.4449 35.3875 53.0792C37.2667 54.3417 39.3875 55.2708 41.6667 55.7875V43.75C41.6667 42.0924 42.3251 40.5027 43.4972 39.3306C44.6693 38.1585 46.2591 37.5 47.9167 37.5H64.5833C64.5831 34.0029 63.6049 30.5755 61.7592 27.6052C59.9135 24.6348 57.2739 22.2398 54.1385 20.6907C51.0032 19.1417 47.4972 18.5004 44.0165 18.8393C40.5359 19.1781 37.2193 20.4836 34.4417 22.6083C33.6083 20.3042 32.4208 18.5417 31.5958 17.3167L31.4292 17.0667C35.1727 14.4277 39.5693 12.8679 44.139 12.5575C48.7087 12.247 53.2759 13.198 57.3419 15.3065C61.408 17.4149 64.8167 20.5999 67.1959 24.5137C69.5751 28.4276 70.8333 32.9198 70.8333 37.5H85.4167C87.0743 37.5 88.664 38.1585 89.8361 39.3306C91.0082 40.5027 91.6667 42.0924 91.6667 43.75V81.25C91.6667 82.9076 91.0082 84.4973 89.8361 85.6694C88.664 86.8415 87.0743 87.5 85.4167 87.5H47.9167C46.2591 87.5 44.6693 86.8415 43.4972 85.6694C42.3251 84.4973 41.6667 82.9076 41.6667 81.25V62.1542V62.1583ZM47.9167 62.4208V81.2542H85.4167V43.7542H70.0417C68.7435 48.7751 65.917 53.2685 61.9533 56.6126C57.9895 59.9568 53.0845 61.9865 47.9167 62.4208ZM63.5167 43.7542H47.9167V56.1417C51.4175 55.7492 54.7371 54.3792 57.4959 52.1886C60.2547 49.9979 62.3411 47.075 63.5167 43.7542Z" />
</svg>
