<svg width="100" height="100" viewBox="0 0 100 100" fill="none" xmlns="http://www.w3.org/2000/svg">
<path id="module_6" d="M93.1389 52.1111L73.8889 43.25V17.8611C73.8801 17.3285 73.7183 16.8096 73.4227 16.3663C73.1272 15.9231 72.7105 15.5741 72.2222 15.3611L51.3889 5.77778C51.0232 5.60856 50.6251 5.5209 50.2222 5.5209C49.8193 5.5209 49.4212 5.60856 49.0556 5.77778L28.2222 15.3611C27.7401 15.5843 27.332 15.941 27.0464 16.389C26.7609 16.8371 26.6098 17.3576 26.6111 17.8889V43.2778L7.44445 52.1111C6.96228 52.3343 6.55422 52.691 6.26866 53.139C5.9831 53.5871 5.83202 54.1076 5.83334 54.6389V81.8056C5.83202 82.3369 5.9831 82.8574 6.26866 83.3054C6.55422 83.7534 6.96228 84.1102 7.44445 84.3333L28.2778 93.9167C28.6434 94.0859 29.0415 94.1735 29.4444 94.1735C29.8474 94.1735 30.2455 94.0859 30.6111 93.9167L50.2778 84.8611L69.9445 93.9167C70.3101 94.0859 70.7082 94.1735 71.1111 94.1735C71.514 94.1735 71.9121 94.0859 72.2778 93.9167L93.1111 84.3333C93.5933 84.1102 94.0013 83.7534 94.2869 83.3054C94.5725 82.8574 94.7235 82.3369 94.7222 81.8056V54.6389C94.726 54.1106 94.5791 53.5922 94.2986 53.1445C94.0182 52.6967 93.6159 52.3383 93.1389 52.1111ZM85.3333 54.6389L71.1389 61.1111L56.9444 54.6389L71.1389 48.1111L85.3333 54.6389ZM50.2778 11.3333L64.4722 17.8611L50.2778 24.3889L36.1111 17.8611L50.2778 11.3333ZM29.4444 48.0833L43.6389 54.6111L29.4444 61.1111L15.25 54.6389L29.4444 48.0833ZM47.5 80L29.4444 88.3333L11.3889 80V58.9722L28.2778 66.6667C28.6359 66.8276 29.024 66.9109 29.4167 66.9109C29.8093 66.9109 30.1975 66.8276 30.5556 66.6667L47.4444 58.8889L47.5 80ZM32.2222 43.25V22.2222L49.1111 30C49.4768 30.1692 49.8749 30.2569 50.2778 30.2569C50.6807 30.2569 51.0788 30.1692 51.4444 30L68.3333 22.2222V43.2778L50.2778 51.6111L32.2222 43.25ZM89.1945 80.0278L71.1389 88.3611L53.0556 80.0278V58.9444L69.9722 66.6667C70.3265 66.8236 70.7097 66.9047 71.0972 66.9047C71.4847 66.9047 71.8679 66.8236 72.2222 66.6667L89.1111 58.8889L89.1945 80.0278Z"/>
</svg>
