<svg width="100" height="100" viewBox="0 0 100 100" fill="none" xmlns="http://www.w3.org/2000/svg">
  <g id="module_1">
<path d="M71.875 43.75V37.5H28.125V43.75H43.75V52.2937L31.6625 73.45L37.0875 76.55L48.6875 56.25H51.3125L62.9125 76.55L68.3375 73.45L56.25 52.2937V43.75H71.875Z"/>
<path d="M50 34.375C53.4518 34.375 56.25 31.5768 56.25 28.125C56.25 24.6732 53.4518 21.875 50 21.875C46.5482 21.875 43.75 24.6732 43.75 28.125C43.75 31.5768 46.5482 34.375 50 34.375Z"/>
<path d="M50 93.75C41.3471 93.75 32.8884 91.1841 25.6938 86.3768C18.4991 81.5695 12.8916 74.7367 9.58027 66.7424C6.26893 58.7481 5.40254 49.9515 7.09064 41.4648C8.77874 32.9781 12.9455 25.1826 19.0641 19.0641C25.1826 12.9455 32.9781 8.77875 41.4648 7.09065C49.9515 5.40254 58.7481 6.26894 66.7424 9.58027C74.7367 12.8916 81.5695 18.4992 86.3768 25.6938C91.1841 32.8885 93.75 41.3471 93.75 50C93.7368 61.5992 89.1231 72.7195 80.9213 80.9213C72.7195 89.1232 61.5992 93.7368 50 93.75ZM50 12.5C42.5832 12.5 35.333 14.6993 29.1661 18.8199C22.9993 22.9404 18.1928 28.7971 15.3545 35.6494C12.5162 42.5016 11.7736 50.0416 13.2205 57.3159C14.6675 64.5902 18.239 71.272 23.4835 76.5165C28.728 81.761 35.4098 85.3325 42.6841 86.7794C49.9584 88.2264 57.4984 87.4838 64.3506 84.6455C71.2029 81.8072 77.0595 77.0007 81.1801 70.8339C85.3007 64.667 87.5 57.4168 87.5 50C87.4884 40.0579 83.5338 30.5264 76.5037 23.4963C69.4736 16.4662 59.9421 12.5116 50 12.5Z"/>
</g>
</svg>
