<svg width="100" height="100" viewBox="0 0 100 100" fill="none" xmlns="http://www.w3.org/2000/svg">
<path id="module_7" d="M92.8359 33.7266L69.3984 10.2891C69.1082 9.99851 68.7636 9.76802 68.3842 9.61075C68.0048 9.45349 67.5982 9.37254 67.1875 9.37254C66.7768 9.37254 66.3702 9.45349 65.9908 9.61075C65.6114 9.76802 65.2668 9.99851 64.9766 10.2891L14.4961 60.7695C11.2161 64.0495 9.37344 68.4981 9.37344 73.1367C9.37344 77.7753 11.2161 82.2239 14.4961 85.5039C17.7761 88.7839 22.2247 90.6266 26.8633 90.6266C31.5019 90.6266 35.9505 88.7839 39.2305 85.5039L82.9375 41.7969L91.6133 38.9063C92.119 38.7381 92.5733 38.4433 92.933 38.0501C93.2927 37.6568 93.5458 37.1781 93.6683 36.6594C93.7908 36.1407 93.7787 35.5993 93.633 35.0867C93.4873 34.5741 93.2129 34.1072 92.8359 33.7305V33.7266ZM34.8086 81.082C32.6883 83.1255 29.8508 84.2551 26.9062 84.2279C23.9617 84.2008 21.1454 83.019 19.0632 80.9368C16.981 78.8546 15.7992 76.0383 15.7721 73.0938C15.7449 70.1492 16.8745 67.3117 18.918 65.1914L30.168 53.9414C33.4766 52.8086 38.6641 52.3789 45.4297 55.8945C49.5703 58.0586 53.3125 59.0195 56.5859 59.3047L34.8086 81.082ZM80.2617 36.0977C79.8012 36.2506 79.3826 36.5087 79.0391 36.8516L63.582 52.3086C60.2734 53.4414 55.0859 53.8711 48.3203 50.3555C44.1797 48.1914 40.4375 47.2305 37.1641 46.9453L67.1875 16.918L84.8399 34.5703L80.2617 36.0977Z" />
</svg>
