<svg width="35" height="35" viewBox="0 0 35 35" fill="none" xmlns="http://www.w3.org/2000/svg">
<path id="rss" d="M9.2931 22.8079C10.1064 22.8079 10.8864 23.131 11.4615 23.7061C12.0365 24.2811 12.3596 25.0611 12.3596 25.8744C12.3596 27.5343 10.9811 28.941 9.2931 28.941C7.63323 28.941 6.22656 27.5343 6.22656 25.8744C6.22656 25.0611 6.54964 24.2811 7.12473 23.7061C7.69982 23.131 8.4798 22.8079 9.2931 22.8079ZM6.22656 7.05322C12.0315 7.05322 17.5988 9.35924 21.7035 13.464C25.8083 17.5687 28.1143 23.136 28.1143 28.941H24.1334C24.1334 24.1918 22.2468 19.6371 18.8886 16.2789C15.5304 12.9207 10.9758 11.0341 6.22656 11.0341V7.05322ZM6.22656 15.015C9.91997 15.015 13.4621 16.4822 16.0737 19.0938C18.6854 21.7054 20.1526 25.2475 20.1526 28.941H16.1717C16.1717 26.3033 15.1239 23.7738 13.2588 21.9087C11.3938 20.0436 8.86418 18.9958 6.22656 18.9958V15.015Z" />
</svg>
