<svg width="34" height="35" viewBox="0 0 34 35" fill="none" xmlns="http://www.w3.org/2000/svg">
<path id="twitter" d="M31.7141 9.24766C30.631 9.73999 29.4634 10.0635 28.2537 10.2183C29.4916 9.47273 30.4481 8.29113 30.8982 6.87039C29.7307 7.57373 28.4366 8.06606 27.0721 8.34739C25.9608 7.13766 24.3994 6.43433 22.627 6.43433C19.3214 6.43433 16.6206 9.13513 16.6206 12.4689C16.6206 12.9472 16.6768 13.4114 16.7753 13.8475C11.7676 13.5943 7.30842 11.1889 4.34035 7.54559C3.81989 8.43179 3.52449 9.47273 3.52449 10.5699C3.52449 12.6659 4.57949 14.5227 6.21122 15.5777C5.21249 15.5777 4.28409 15.2963 3.46822 14.8743V14.9165C3.46822 17.8424 5.55009 20.29 8.30715 20.8386C7.42198 21.0808 6.49269 21.1145 5.59229 20.9371C5.97435 22.1362 6.7226 23.1855 7.73185 23.9374C8.74111 24.6893 9.96062 25.106 11.219 25.1289C9.08593 26.8175 6.44191 27.7303 3.72142 27.7172C3.24315 27.7172 2.76489 27.6891 2.28662 27.6328C4.95929 29.3489 8.13835 30.3477 11.5425 30.3477C22.627 30.3477 28.7179 21.1481 28.7179 13.1723C28.7179 12.905 28.7179 12.6518 28.7038 12.3845C29.8854 11.5405 30.8982 10.4715 31.7141 9.24766Z" />
</svg>
